<?xml version="1.0" encoding="UTF-8"?>
<svg xmlns="http://www.w3.org/2000/svg" xmlns:xlink="http://www.w3.org/1999/xlink" viewBox="0 0 960 540">
<defs>
<g>
<g id="glyph-0-0">
<path d="M 13.078125 -7.015625 L 16.203125 -7.015625 L 16.203125 -5.125 L 13.078125 -5.125 L 13.078125 0 L 10.984375 0 L 10.984375 -5.125 L 1.265625 -5.125 L 1.265625 -7.234375 L 10.265625 -21.234375 L 13.078125 -21.234375 Z M 10.984375 -18.8125 L 10.921875 -18.8125 L 3.515625 -7.015625 L 10.984375 -7.015625 Z M 10.984375 -18.8125 "/>
</g>
<g id="glyph-0-1">
<path d="M 8.703125 -21.78125 C 10.023438 -21.78125 11.128906 -21.453125 12.015625 -20.796875 C 12.898438 -20.148438 13.613281 -19.300781 14.15625 -18.25 C 14.695312 -17.207031 15.082031 -16.015625 15.3125 -14.671875 C 15.539062 -13.328125 15.65625 -11.96875 15.65625 -10.59375 C 15.65625 -9.207031 15.539062 -7.847656 15.3125 -6.515625 C 15.082031 -5.191406 14.695312 -4.003906 14.15625 -2.953125 C 13.613281 -1.898438 12.898438 -1.050781 12.015625 -0.40625 C 11.128906 0.226562 10.023438 0.546875 8.703125 0.546875 C 7.359375 0.546875 6.238281 0.226562 5.34375 -0.40625 C 4.457031 -1.050781 3.742188 -1.898438 3.203125 -2.953125 C 2.671875 -4.003906 2.289062 -5.191406 2.0625 -6.515625 C 1.84375 -7.847656 1.734375 -9.207031 1.734375 -10.59375 C 1.734375 -11.96875 1.84375 -13.328125 2.0625 -14.671875 C 2.289062 -16.015625 2.671875 -17.207031 3.203125 -18.25 C 3.742188 -19.300781 4.457031 -20.148438 5.34375 -20.796875 C 6.238281 -21.453125 7.359375 -21.78125 8.703125 -21.78125 Z M 8.703125 -19.953125 C 7.765625 -19.953125 6.984375 -19.660156 6.359375 -19.078125 C 5.742188 -18.492188 5.253906 -17.753906 4.890625 -16.859375 C 4.523438 -15.960938 4.273438 -14.957031 4.140625 -13.84375 C 4.003906 -12.738281 3.9375 -11.65625 3.9375 -10.59375 C 3.9375 -9.53125 4.003906 -8.445312 4.140625 -7.34375 C 4.273438 -6.25 4.523438 -5.253906 4.890625 -4.359375 C 5.253906 -3.472656 5.742188 -2.742188 6.359375 -2.171875 C 6.984375 -1.597656 7.765625 -1.3125 8.703125 -1.3125 C 9.617188 -1.3125 10.382812 -1.597656 11 -2.171875 C 11.625 -2.742188 12.113281 -3.472656 12.46875 -4.359375 C 12.832031 -5.253906 13.085938 -6.25 13.234375 -7.34375 C 13.390625 -8.445312 13.46875 -9.53125 13.46875 -10.59375 C 13.46875 -11.65625 13.390625 -12.738281 13.234375 -13.84375 C 13.085938 -14.957031 12.832031 -15.960938 12.46875 -16.859375 C 12.113281 -17.753906 11.625 -18.492188 11 -19.078125 C 10.382812 -19.660156 9.617188 -19.953125 8.703125 -19.953125 Z M 8.703125 -19.953125 "/>
</g>
<g id="glyph-0-2">
<path d="M 12.8125 -10.828125 C 12.46875 -11.367188 11.96875 -11.8125 11.3125 -12.15625 C 10.664062 -12.507812 9.960938 -12.6875 9.203125 -12.6875 C 8.390625 -12.6875 7.648438 -12.539062 6.984375 -12.25 C 6.328125 -11.957031 5.765625 -11.554688 5.296875 -11.046875 C 4.828125 -10.546875 4.46875 -9.945312 4.21875 -9.25 C 3.96875 -8.5625 3.84375 -7.816406 3.84375 -7.015625 C 3.84375 -6.210938 3.96875 -5.472656 4.21875 -4.796875 C 4.46875 -4.117188 4.820312 -3.523438 5.28125 -3.015625 C 5.738281 -2.503906 6.296875 -2.101562 6.953125 -1.8125 C 7.617188 -1.519531 8.363281 -1.375 9.1875 -1.375 C 10.082031 -1.375 10.835938 -1.546875 11.453125 -1.890625 C 12.078125 -2.234375 12.585938 -2.671875 12.984375 -3.203125 L 14.515625 -2.0625 C 13.921875 -1.320312 13.1875 -0.734375 12.3125 -0.296875 C 11.445312 0.140625 10.40625 0.359375 9.1875 0.359375 C 8.039062 0.359375 7.003906 0.175781 6.078125 -0.1875 C 5.160156 -0.5625 4.378906 -1.078125 3.734375 -1.734375 C 3.085938 -2.398438 2.582031 -3.179688 2.21875 -4.078125 C 1.863281 -4.984375 1.6875 -5.960938 1.6875 -7.015625 C 1.6875 -8.078125 1.863281 -9.054688 2.21875 -9.953125 C 2.582031 -10.859375 3.085938 -11.640625 3.734375 -12.296875 C 4.378906 -12.960938 5.160156 -13.476562 6.078125 -13.84375 C 7.003906 -14.21875 8.039062 -14.40625 9.1875 -14.40625 C 10.125 -14.40625 11.078125 -14.195312 12.046875 -13.78125 C 13.015625 -13.375 13.800781 -12.769531 14.40625 -11.96875 Z M 12.8125 -10.828125 "/>
</g>
<g id="glyph-0-3">
<path d="M 4.703125 -11.640625 C 5.109375 -12.460938 5.722656 -13.128906 6.546875 -13.640625 C 7.378906 -14.148438 8.304688 -14.40625 9.328125 -14.40625 C 9.710938 -14.40625 10.109375 -14.363281 10.515625 -14.28125 C 10.921875 -14.195312 11.316406 -14.039062 11.703125 -13.8125 C 12.097656 -13.582031 12.460938 -13.273438 12.796875 -12.890625 C 13.128906 -12.515625 13.414062 -12.03125 13.65625 -11.4375 C 14.132812 -12.394531 14.785156 -13.128906 15.609375 -13.640625 C 16.441406 -14.148438 17.425781 -14.40625 18.5625 -14.40625 C 20.34375 -14.40625 21.675781 -13.875 22.5625 -12.8125 C 23.457031 -11.75 23.90625 -10.347656 23.90625 -8.609375 L 23.90625 0 L 21.875 0 L 21.875 -7.765625 C 21.875 -9.242188 21.597656 -10.429688 21.046875 -11.328125 C 20.492188 -12.234375 19.554688 -12.6875 18.234375 -12.6875 C 17.492188 -12.6875 16.867188 -12.535156 16.359375 -12.234375 C 15.847656 -11.941406 15.4375 -11.546875 15.125 -11.046875 C 14.820312 -10.554688 14.597656 -10 14.453125 -9.375 C 14.316406 -8.757812 14.25 -8.125 14.25 -7.46875 L 14.25 0 L 12.203125 0 L 12.203125 -8.1875 C 12.203125 -8.863281 12.148438 -9.484375 12.046875 -10.046875 C 11.953125 -10.609375 11.78125 -11.082031 11.53125 -11.46875 C 11.28125 -11.863281 10.9375 -12.164062 10.5 -12.375 C 10.0625 -12.582031 9.5 -12.6875 8.8125 -12.6875 C 8.332031 -12.6875 7.847656 -12.578125 7.359375 -12.359375 C 6.867188 -12.140625 6.425781 -11.804688 6.03125 -11.359375 C 5.644531 -10.910156 5.332031 -10.335938 5.09375 -9.640625 C 4.851562 -8.953125 4.734375 -8.140625 4.734375 -7.203125 L 4.734375 0 L 2.703125 0 L 2.703125 -10.953125 C 2.703125 -11.328125 2.691406 -11.8125 2.671875 -12.40625 C 2.648438 -13.007812 2.617188 -13.554688 2.578125 -14.046875 L 4.53125 -14.046875 C 4.570312 -13.660156 4.601562 -13.238281 4.625 -12.78125 C 4.644531 -12.320312 4.65625 -11.941406 4.65625 -11.640625 Z M 4.703125 -11.640625 "/>
</g>
<g id="glyph-0-4">
<path d="M 4.984375 0 L 2.8125 0 L 2.8125 -21.234375 L 15.625 -21.234375 L 15.625 -19.3125 L 4.984375 -19.3125 L 4.984375 -11.9375 L 14.875 -11.9375 L 14.875 -10.046875 L 4.984375 -10.046875 Z M 4.984375 0 "/>
</g>
<g id="glyph-0-5">
<path d="M 4.765625 0 L 2.734375 0 L 2.734375 -14.046875 L 4.765625 -14.046875 Z M 5.1875 -19.4375 C 5.1875 -19.019531 5.035156 -18.675781 4.734375 -18.40625 C 4.441406 -18.132812 4.113281 -18 3.75 -18 C 3.382812 -18 3.050781 -18.132812 2.75 -18.40625 C 2.457031 -18.675781 2.3125 -19.019531 2.3125 -19.4375 C 2.3125 -19.851562 2.457031 -20.195312 2.75 -20.46875 C 3.050781 -20.738281 3.382812 -20.875 3.75 -20.875 C 4.113281 -20.875 4.441406 -20.738281 4.734375 -20.46875 C 5.035156 -20.195312 5.1875 -19.851562 5.1875 -19.4375 Z M 5.1875 -19.4375 "/>
</g>
<g id="glyph-0-6">
<path d="M 6 -7.265625 L 0.8125 -14.046875 L 3.421875 -14.046875 L 7.265625 -8.703125 L 11.09375 -14.046875 L 13.5625 -14.046875 L 8.453125 -7.34375 L 14.046875 0 L 11.40625 0 L 7.234375 -5.84375 L 2.9375 0 L 0.484375 0 Z M 6 -7.265625 "/>
</g>
<g id="glyph-0-7">
<path d="M 11.546875 -9.0625 C 11.546875 -10.28125 11.222656 -11.1875 10.578125 -11.78125 C 9.941406 -12.382812 9.015625 -12.6875 7.796875 -12.6875 C 6.960938 -12.6875 6.179688 -12.535156 5.453125 -12.234375 C 4.734375 -11.941406 4.125 -11.546875 3.625 -11.046875 L 2.484375 -12.390625 C 3.066406 -12.972656 3.832031 -13.453125 4.78125 -13.828125 C 5.726562 -14.210938 6.804688 -14.40625 8.015625 -14.40625 C 8.773438 -14.40625 9.484375 -14.296875 10.140625 -14.078125 C 10.796875 -13.867188 11.375 -13.554688 11.875 -13.140625 C 12.375 -12.722656 12.765625 -12.191406 13.046875 -11.546875 C 13.328125 -10.910156 13.46875 -10.160156 13.46875 -9.296875 L 13.46875 -3.15625 C 13.46875 -2.613281 13.488281 -2.050781 13.53125 -1.46875 C 13.570312 -0.882812 13.628906 -0.394531 13.703125 0 L 11.875 0 C 11.820312 -0.34375 11.773438 -0.710938 11.734375 -1.109375 C 11.691406 -1.503906 11.671875 -1.894531 11.671875 -2.28125 L 11.609375 -2.28125 C 10.972656 -1.34375 10.25 -0.664062 9.4375 -0.25 C 8.625 0.15625 7.648438 0.359375 6.515625 0.359375 C 5.972656 0.359375 5.414062 0.28125 4.84375 0.125 C 4.269531 -0.0195312 3.75 -0.257812 3.28125 -0.59375 C 2.8125 -0.9375 2.421875 -1.378906 2.109375 -1.921875 C 1.804688 -2.460938 1.65625 -3.125 1.65625 -3.90625 C 1.65625 -4.976562 1.925781 -5.828125 2.46875 -6.453125 C 3.019531 -7.085938 3.753906 -7.5625 4.671875 -7.875 C 5.597656 -8.1875 6.65625 -8.382812 7.84375 -8.46875 C 9.03125 -8.5625 10.265625 -8.609375 11.546875 -8.609375 Z M 10.953125 -7.015625 C 10.109375 -7.015625 9.257812 -6.976562 8.40625 -6.90625 C 7.5625 -6.84375 6.789062 -6.707031 6.09375 -6.5 C 5.40625 -6.289062 4.84375 -5.984375 4.40625 -5.578125 C 3.96875 -5.179688 3.75 -4.648438 3.75 -3.984375 C 3.75 -3.484375 3.84375 -3.0625 4.03125 -2.71875 C 4.21875 -2.382812 4.472656 -2.113281 4.796875 -1.90625 C 5.117188 -1.695312 5.472656 -1.546875 5.859375 -1.453125 C 6.253906 -1.359375 6.648438 -1.3125 7.046875 -1.3125 C 7.765625 -1.3125 8.40625 -1.4375 8.96875 -1.6875 C 9.53125 -1.9375 10 -2.273438 10.375 -2.703125 C 10.757812 -3.140625 11.050781 -3.640625 11.25 -4.203125 C 11.445312 -4.765625 11.546875 -5.351562 11.546875 -5.96875 L 11.546875 -7.015625 Z M 10.953125 -7.015625 "/>
</g>
<g id="glyph-0-8">
<path d="M 9.03125 -12.328125 L 5.0625 -12.328125 L 5.0625 -4.140625 C 5.0625 -3.617188 5.113281 -3.1875 5.21875 -2.84375 C 5.320312 -2.507812 5.46875 -2.242188 5.65625 -2.046875 C 5.84375 -1.859375 6.066406 -1.726562 6.328125 -1.65625 C 6.585938 -1.59375 6.867188 -1.5625 7.171875 -1.5625 C 7.453125 -1.5625 7.742188 -1.597656 8.046875 -1.671875 C 8.359375 -1.753906 8.65625 -1.867188 8.9375 -2.015625 L 9.03125 -0.234375 C 8.664062 -0.0976562 8.285156 0.00390625 7.890625 0.078125 C 7.503906 0.148438 7.082031 0.1875 6.625 0.1875 C 6.25 0.1875 5.847656 0.132812 5.421875 0.03125 C 5.003906 -0.0703125 4.613281 -0.257812 4.25 -0.53125 C 3.894531 -0.8125 3.601562 -1.191406 3.375 -1.671875 C 3.144531 -2.160156 3.03125 -2.789062 3.03125 -3.5625 L 3.03125 -12.328125 L 0.125 -12.328125 L 0.125 -14.046875 L 3.03125 -14.046875 L 3.03125 -18 L 5.0625 -18 L 5.0625 -14.046875 L 9.03125 -14.046875 Z M 9.03125 -12.328125 "/>
</g>
<g id="glyph-0-9">
<path d="M 16.65625 -7.015625 C 16.65625 -5.960938 16.46875 -4.984375 16.09375 -4.078125 C 15.726562 -3.179688 15.210938 -2.398438 14.546875 -1.734375 C 13.890625 -1.078125 13.097656 -0.5625 12.171875 -0.1875 C 11.253906 0.175781 10.25 0.359375 9.15625 0.359375 C 8.070312 0.359375 7.066406 0.175781 6.140625 -0.1875 C 5.222656 -0.5625 4.4375 -1.078125 3.78125 -1.734375 C 3.125 -2.398438 2.609375 -3.179688 2.234375 -4.078125 C 1.867188 -4.984375 1.6875 -5.960938 1.6875 -7.015625 C 1.6875 -8.078125 1.867188 -9.054688 2.234375 -9.953125 C 2.609375 -10.859375 3.125 -11.640625 3.78125 -12.296875 C 4.4375 -12.960938 5.222656 -13.476562 6.140625 -13.84375 C 7.066406 -14.21875 8.070312 -14.40625 9.15625 -14.40625 C 10.25 -14.40625 11.253906 -14.21875 12.171875 -13.84375 C 13.097656 -13.476562 13.890625 -12.960938 14.546875 -12.296875 C 15.210938 -11.640625 15.726562 -10.859375 16.09375 -9.953125 C 16.46875 -9.054688 16.65625 -8.078125 16.65625 -7.015625 Z M 14.484375 -7.015625 C 14.484375 -7.796875 14.359375 -8.53125 14.109375 -9.21875 C 13.859375 -9.914062 13.503906 -10.519531 13.046875 -11.03125 C 12.585938 -11.539062 12.023438 -11.941406 11.359375 -12.234375 C 10.703125 -12.535156 9.96875 -12.6875 9.15625 -12.6875 C 8.332031 -12.6875 7.59375 -12.535156 6.9375 -12.234375 C 6.289062 -11.941406 5.738281 -11.539062 5.28125 -11.03125 C 4.820312 -10.519531 4.46875 -9.914062 4.21875 -9.21875 C 3.96875 -8.53125 3.84375 -7.796875 3.84375 -7.015625 C 3.84375 -6.234375 3.96875 -5.5 4.21875 -4.8125 C 4.46875 -4.125 4.820312 -3.523438 5.28125 -3.015625 C 5.738281 -2.503906 6.289062 -2.101562 6.9375 -1.8125 C 7.59375 -1.519531 8.332031 -1.375 9.15625 -1.375 C 9.96875 -1.375 10.703125 -1.519531 11.359375 -1.8125 C 12.023438 -2.101562 12.585938 -2.503906 13.046875 -3.015625 C 13.503906 -3.523438 13.859375 -4.125 14.109375 -4.8125 C 14.359375 -5.5 14.484375 -6.234375 14.484375 -7.015625 Z M 14.484375 -7.015625 "/>
</g>
<g id="glyph-0-10">
<path d="M 4.53125 -14.046875 C 4.570312 -13.660156 4.601562 -13.238281 4.625 -12.78125 C 4.644531 -12.320312 4.65625 -11.941406 4.65625 -11.640625 L 4.703125 -11.640625 C 5.109375 -12.460938 5.757812 -13.128906 6.65625 -13.640625 C 7.5625 -14.148438 8.515625 -14.40625 9.515625 -14.40625 C 11.296875 -14.40625 12.628906 -13.875 13.515625 -12.8125 C 14.398438 -11.75 14.84375 -10.347656 14.84375 -8.609375 L 14.84375 0 L 12.8125 0 L 12.8125 -7.765625 C 12.8125 -8.503906 12.75 -9.175781 12.625 -9.78125 C 12.507812 -10.382812 12.304688 -10.898438 12.015625 -11.328125 C 11.722656 -11.753906 11.332031 -12.085938 10.84375 -12.328125 C 10.351562 -12.566406 9.738281 -12.6875 9 -12.6875 C 8.457031 -12.6875 7.929688 -12.578125 7.421875 -12.359375 C 6.910156 -12.140625 6.453125 -11.804688 6.046875 -11.359375 C 5.648438 -10.910156 5.332031 -10.335938 5.09375 -9.640625 C 4.851562 -8.953125 4.734375 -8.140625 4.734375 -7.203125 L 4.734375 0 L 2.703125 0 L 2.703125 -10.953125 C 2.703125 -11.328125 2.691406 -11.8125 2.671875 -12.40625 C 2.648438 -13.007812 2.617188 -13.554688 2.578125 -14.046875 Z M 4.53125 -14.046875 "/>
</g>
<g id="glyph-1-0">
<path d="M 3.21875 -5.046875 C 3.40625 -4.054688 3.84375 -3.226562 4.53125 -2.5625 C 5.21875 -1.90625 6.125 -1.578125 7.25 -1.578125 C 8.113281 -1.578125 8.820312 -1.734375 9.375 -2.046875 C 9.9375 -2.359375 10.382812 -2.78125 10.71875 -3.3125 C 11.0625 -3.851562 11.296875 -4.46875 11.421875 -5.15625 C 11.554688 -5.84375 11.625 -6.5625 11.625 -7.3125 L 11.625 -24.78125 L 14.140625 -24.78125 L 14.140625 -7.140625 C 14.140625 -6.328125 14.050781 -5.460938 13.875 -4.546875 C 13.695312 -3.640625 13.363281 -2.800781 12.875 -2.03125 C 12.382812 -1.257812 11.707031 -0.625 10.84375 -0.125 C 9.988281 0.375 8.882812 0.625 7.53125 0.625 C 5.726562 0.625 4.242188 0.15625 3.078125 -0.78125 C 1.910156 -1.726562 1.175781 -2.9375 0.875 -4.40625 Z M 3.21875 -5.046875 "/>
</g>
<g id="glyph-1-1">
<path d="M 19.421875 -8.1875 C 19.421875 -6.945312 19.203125 -5.800781 18.765625 -4.75 C 18.335938 -3.707031 17.738281 -2.800781 16.96875 -2.03125 C 16.195312 -1.257812 15.273438 -0.65625 14.203125 -0.21875 C 13.128906 0.207031 11.953125 0.421875 10.671875 0.421875 C 9.410156 0.421875 8.242188 0.207031 7.171875 -0.21875 C 6.097656 -0.65625 5.175781 -1.257812 4.40625 -2.03125 C 3.632812 -2.800781 3.03125 -3.707031 2.59375 -4.75 C 2.164062 -5.800781 1.953125 -6.945312 1.953125 -8.1875 C 1.953125 -9.425781 2.164062 -10.566406 2.59375 -11.609375 C 3.03125 -12.660156 3.632812 -13.570312 4.40625 -14.34375 C 5.175781 -15.113281 6.097656 -15.710938 7.171875 -16.140625 C 8.242188 -16.578125 9.410156 -16.796875 10.671875 -16.796875 C 11.953125 -16.796875 13.128906 -16.578125 14.203125 -16.140625 C 15.273438 -15.710938 16.195312 -15.113281 16.96875 -14.34375 C 17.738281 -13.570312 18.335938 -12.660156 18.765625 -11.609375 C 19.203125 -10.566406 19.421875 -9.425781 19.421875 -8.1875 Z M 16.90625 -8.1875 C 16.90625 -9.101562 16.757812 -9.960938 16.46875 -10.765625 C 16.175781 -11.566406 15.757812 -12.265625 15.21875 -12.859375 C 14.6875 -13.453125 14.035156 -13.925781 13.265625 -14.28125 C 12.492188 -14.632812 11.628906 -14.8125 10.671875 -14.8125 C 9.710938 -14.8125 8.851562 -14.632812 8.09375 -14.28125 C 7.34375 -13.925781 6.695312 -13.453125 6.15625 -12.859375 C 5.625 -12.265625 5.210938 -11.566406 4.921875 -10.765625 C 4.628906 -9.960938 4.484375 -9.101562 4.484375 -8.1875 C 4.484375 -7.28125 4.628906 -6.421875 4.921875 -5.609375 C 5.210938 -4.804688 5.625 -4.109375 6.15625 -3.515625 C 6.695312 -2.921875 7.34375 -2.453125 8.09375 -2.109375 C 8.851562 -1.773438 9.710938 -1.609375 10.671875 -1.609375 C 11.628906 -1.609375 12.492188 -1.773438 13.265625 -2.109375 C 14.035156 -2.453125 14.6875 -2.921875 15.21875 -3.515625 C 15.757812 -4.109375 16.175781 -4.804688 16.46875 -5.609375 C 16.757812 -6.421875 16.90625 -7.28125 16.90625 -8.1875 Z M 16.90625 -8.1875 "/>
</g>
<g id="glyph-1-2">
<path d="M 5.671875 -13.6875 C 6.109375 -14.644531 6.84375 -15.398438 7.875 -15.953125 C 8.90625 -16.515625 10.003906 -16.796875 11.171875 -16.796875 C 13.242188 -16.796875 14.796875 -16.175781 15.828125 -14.9375 C 16.867188 -13.707031 17.390625 -12.078125 17.390625 -10.046875 L 17.390625 0 L 15.015625 0 L 15.015625 -9.0625 C 15.015625 -9.925781 14.941406 -10.707031 14.796875 -11.40625 C 14.660156 -12.101562 14.421875 -12.703125 14.078125 -13.203125 C 13.742188 -13.710938 13.289062 -14.109375 12.71875 -14.390625 C 12.144531 -14.671875 11.425781 -14.8125 10.5625 -14.8125 C 9.9375 -14.8125 9.328125 -14.679688 8.734375 -14.421875 C 8.140625 -14.160156 7.609375 -13.765625 7.140625 -13.234375 C 6.671875 -12.710938 6.296875 -12.050781 6.015625 -11.25 C 5.734375 -10.445312 5.59375 -9.5 5.59375 -8.40625 L 5.59375 0 L 3.21875 0 L 3.21875 -26.453125 L 5.59375 -26.453125 L 5.59375 -13.6875 Z M 5.671875 -13.6875 "/>
</g>
<g id="glyph-1-3">
<path d="M 5.28125 -16.375 C 5.332031 -15.9375 5.367188 -15.445312 5.390625 -14.90625 C 5.410156 -14.375 5.421875 -13.929688 5.421875 -13.578125 L 5.5 -13.578125 C 5.957031 -14.535156 6.710938 -15.3125 7.765625 -15.90625 C 8.816406 -16.5 9.925781 -16.796875 11.09375 -16.796875 C 13.164062 -16.796875 14.722656 -16.175781 15.765625 -14.9375 C 16.804688 -13.707031 17.328125 -12.078125 17.328125 -10.046875 L 17.328125 0 L 14.9375 0 L 14.9375 -9.0625 C 14.9375 -9.925781 14.867188 -10.707031 14.734375 -11.40625 C 14.597656 -12.101562 14.359375 -12.703125 14.015625 -13.203125 C 13.679688 -13.710938 13.226562 -14.109375 12.65625 -14.390625 C 12.082031 -14.671875 11.363281 -14.8125 10.5 -14.8125 C 9.875 -14.8125 9.257812 -14.679688 8.65625 -14.421875 C 8.0625 -14.160156 7.53125 -13.765625 7.0625 -13.234375 C 6.601562 -12.710938 6.234375 -12.050781 5.953125 -11.25 C 5.671875 -10.445312 5.53125 -9.5 5.53125 -8.40625 L 5.53125 0 L 3.15625 0 L 3.15625 -12.78125 C 3.15625 -13.21875 3.140625 -13.785156 3.109375 -14.484375 C 3.085938 -15.191406 3.054688 -15.820312 3.015625 -16.375 Z M 5.28125 -16.375 "/>
</g>
<g id="glyph-1-4">
<path d="M 11.859375 -12.5 C 11.515625 -13.175781 10.984375 -13.726562 10.265625 -14.15625 C 9.554688 -14.59375 8.75 -14.8125 7.84375 -14.8125 C 7.414062 -14.8125 6.992188 -14.765625 6.578125 -14.671875 C 6.160156 -14.578125 5.785156 -14.421875 5.453125 -14.203125 C 5.128906 -13.992188 4.867188 -13.726562 4.671875 -13.40625 C 4.472656 -13.082031 4.375 -12.695312 4.375 -12.25 C 4.375 -11.476562 4.6875 -10.890625 5.3125 -10.484375 C 5.945312 -10.078125 6.941406 -9.734375 8.296875 -9.453125 C 10.234375 -9.054688 11.660156 -8.476562 12.578125 -7.71875 C 13.503906 -6.957031 13.96875 -5.9375 13.96875 -4.65625 C 13.96875 -3.71875 13.785156 -2.925781 13.421875 -2.28125 C 13.054688 -1.644531 12.582031 -1.125 12 -0.71875 C 11.414062 -0.3125 10.753906 -0.0195312 10.015625 0.15625 C 9.285156 0.332031 8.550781 0.421875 7.8125 0.421875 C 6.570312 0.421875 5.367188 0.164062 4.203125 -0.34375 C 3.035156 -0.863281 2.078125 -1.671875 1.328125 -2.765625 L 3.21875 -4.171875 C 3.632812 -3.441406 4.25 -2.832031 5.0625 -2.34375 C 5.882812 -1.851562 6.785156 -1.609375 7.765625 -1.609375 C 8.285156 -1.609375 8.773438 -1.65625 9.234375 -1.75 C 9.703125 -1.84375 10.109375 -2.003906 10.453125 -2.234375 C 10.804688 -2.472656 11.085938 -2.769531 11.296875 -3.125 C 11.515625 -3.488281 11.625 -3.941406 11.625 -4.484375 C 11.625 -5.347656 11.207031 -5.992188 10.375 -6.421875 C 9.550781 -6.847656 8.359375 -7.25 6.796875 -7.625 C 6.304688 -7.75 5.785156 -7.894531 5.234375 -8.0625 C 4.679688 -8.238281 4.171875 -8.492188 3.703125 -8.828125 C 3.242188 -9.171875 2.859375 -9.597656 2.546875 -10.109375 C 2.242188 -10.628906 2.09375 -11.273438 2.09375 -12.046875 C 2.09375 -12.878906 2.253906 -13.59375 2.578125 -14.1875 C 2.910156 -14.78125 3.347656 -15.269531 3.890625 -15.65625 C 4.441406 -16.039062 5.066406 -16.328125 5.765625 -16.515625 C 6.472656 -16.703125 7.195312 -16.796875 7.9375 -16.796875 C 9.082031 -16.796875 10.191406 -16.539062 11.265625 -16.03125 C 12.335938 -15.519531 13.144531 -14.796875 13.6875 -13.859375 Z M 11.859375 -12.5 "/>
</g>
<g id="glyph-1-5">
<path d="M 10.53125 -14.390625 L 5.921875 -14.390625 L 5.921875 -4.828125 C 5.921875 -4.222656 5.976562 -3.722656 6.09375 -3.328125 C 6.207031 -2.929688 6.375 -2.617188 6.59375 -2.390625 C 6.820312 -2.171875 7.085938 -2.019531 7.390625 -1.9375 C 7.691406 -1.851562 8.015625 -1.8125 8.359375 -1.8125 C 8.691406 -1.8125 9.035156 -1.859375 9.390625 -1.953125 C 9.753906 -2.046875 10.101562 -2.175781 10.4375 -2.34375 L 10.53125 -0.28125 C 10.113281 -0.113281 9.675781 0.00390625 9.21875 0.078125 C 8.769531 0.160156 8.273438 0.203125 7.734375 0.203125 C 7.285156 0.203125 6.816406 0.144531 6.328125 0.03125 C 5.835938 -0.0820312 5.382812 -0.300781 4.96875 -0.625 C 4.550781 -0.957031 4.207031 -1.398438 3.9375 -1.953125 C 3.664062 -2.515625 3.53125 -3.253906 3.53125 -4.171875 L 3.53125 -14.390625 L 0.140625 -14.390625 L 0.140625 -16.375 L 3.53125 -16.375 L 3.53125 -21 L 5.921875 -21 L 5.921875 -16.375 L 10.53125 -16.375 Z M 10.53125 -14.390625 "/>
</g>
<g id="glyph-1-6">
<path d="M 5.8125 -2.234375 L 17.359375 -2.234375 L 17.359375 0 L 3.296875 0 L 3.296875 -24.78125 L 5.8125 -24.78125 Z M 5.8125 -2.234375 "/>
</g>
<g id="glyph-1-7">
<path d="M 5.5625 0 L 3.1875 0 L 3.1875 -16.375 L 5.5625 -16.375 Z M 6.0625 -22.6875 C 6.0625 -22.1875 5.882812 -21.78125 5.53125 -21.46875 C 5.175781 -21.15625 4.789062 -21 4.375 -21 C 3.957031 -21 3.570312 -21.15625 3.21875 -21.46875 C 2.863281 -21.78125 2.6875 -22.1875 2.6875 -22.6875 C 2.6875 -23.175781 2.863281 -23.578125 3.21875 -23.890625 C 3.570312 -24.203125 3.957031 -24.359375 4.375 -24.359375 C 4.789062 -24.359375 5.175781 -24.203125 5.53125 -23.890625 C 5.882812 -23.578125 6.0625 -23.175781 6.0625 -22.6875 Z M 6.0625 -22.6875 "/>
</g>
<g id="glyph-2-0">
<path d="M 4.15625 0 L 2.34375 0 L 2.34375 -17.703125 L 13.03125 -17.703125 L 13.03125 -16.09375 L 4.15625 -16.09375 L 4.15625 -9.953125 L 12.40625 -9.953125 L 12.40625 -8.375 L 4.15625 -8.375 Z M 4.15625 0 "/>
</g>
<g id="glyph-2-1">
<path d="M 9.625 -7.546875 C 9.625 -8.566406 9.359375 -9.328125 8.828125 -9.828125 C 8.296875 -10.328125 7.519531 -10.578125 6.5 -10.578125 C 5.800781 -10.578125 5.148438 -10.453125 4.546875 -10.203125 C 3.953125 -9.953125 3.445312 -9.617188 3.03125 -9.203125 L 2.078125 -10.328125 C 2.554688 -10.804688 3.191406 -11.203125 3.984375 -11.515625 C 4.773438 -11.835938 5.671875 -12 6.671875 -12 C 7.304688 -12 7.898438 -11.910156 8.453125 -11.734375 C 9.003906 -11.554688 9.488281 -11.289062 9.90625 -10.9375 C 10.320312 -10.59375 10.644531 -10.15625 10.875 -9.625 C 11.101562 -9.09375 11.21875 -8.46875 11.21875 -7.75 L 11.21875 -2.625 C 11.21875 -2.175781 11.234375 -1.707031 11.265625 -1.21875 C 11.304688 -0.738281 11.359375 -0.332031 11.421875 0 L 9.90625 0 C 9.851562 -0.28125 9.804688 -0.585938 9.765625 -0.921875 C 9.734375 -1.253906 9.71875 -1.582031 9.71875 -1.90625 L 9.671875 -1.90625 C 9.140625 -1.113281 8.535156 -0.546875 7.859375 -0.203125 C 7.179688 0.128906 6.367188 0.296875 5.421875 0.296875 C 4.972656 0.296875 4.507812 0.234375 4.03125 0.109375 C 3.5625 -0.015625 3.128906 -0.21875 2.734375 -0.5 C 2.347656 -0.78125 2.023438 -1.144531 1.765625 -1.59375 C 1.503906 -2.050781 1.375 -2.601562 1.375 -3.25 C 1.375 -4.144531 1.601562 -4.851562 2.0625 -5.375 C 2.519531 -5.90625 3.128906 -6.300781 3.890625 -6.5625 C 4.660156 -6.820312 5.539062 -6.988281 6.53125 -7.0625 C 7.53125 -7.132812 8.5625 -7.171875 9.625 -7.171875 Z M 9.125 -5.84375 C 8.425781 -5.84375 7.722656 -5.8125 7.015625 -5.75 C 6.304688 -5.695312 5.660156 -5.582031 5.078125 -5.40625 C 4.503906 -5.238281 4.035156 -4.988281 3.671875 -4.65625 C 3.304688 -4.320312 3.125 -3.878906 3.125 -3.328125 C 3.125 -2.910156 3.203125 -2.554688 3.359375 -2.265625 C 3.515625 -1.984375 3.726562 -1.753906 4 -1.578125 C 4.269531 -1.410156 4.566406 -1.285156 4.890625 -1.203125 C 5.210938 -1.128906 5.539062 -1.09375 5.875 -1.09375 C 6.476562 -1.09375 7.007812 -1.195312 7.46875 -1.40625 C 7.9375 -1.613281 8.328125 -1.894531 8.640625 -2.25 C 8.960938 -2.613281 9.207031 -3.03125 9.375 -3.5 C 9.539062 -3.96875 9.625 -4.457031 9.625 -4.96875 L 9.625 -5.84375 Z M 9.125 -5.84375 "/>
</g>
<g id="glyph-2-2">
<path d="M 2.25 -9.125 C 2.25 -9.4375 2.238281 -9.84375 2.21875 -10.34375 C 2.207031 -10.84375 2.1875 -11.296875 2.15625 -11.703125 L 3.78125 -11.703125 C 3.8125 -11.378906 3.832031 -11.023438 3.84375 -10.640625 C 3.863281 -10.265625 3.875 -9.953125 3.875 -9.703125 L 3.921875 -9.703125 C 4.253906 -10.378906 4.753906 -10.929688 5.421875 -11.359375 C 6.085938 -11.785156 6.835938 -12 7.671875 -12 C 7.890625 -12 8.085938 -11.988281 8.265625 -11.96875 C 8.441406 -11.957031 8.617188 -11.925781 8.796875 -11.875 L 8.578125 -10.28125 C 8.472656 -10.3125 8.300781 -10.34375 8.0625 -10.375 C 7.832031 -10.40625 7.601562 -10.421875 7.375 -10.421875 C 6.925781 -10.421875 6.492188 -10.335938 6.078125 -10.171875 C 5.660156 -10.003906 5.296875 -9.738281 4.984375 -9.375 C 4.679688 -9.019531 4.429688 -8.5625 4.234375 -8 C 4.046875 -7.445312 3.953125 -6.78125 3.953125 -6 L 3.953125 0 L 2.25 0 Z M 2.25 -9.125 "/>
</g>
<g id="glyph-2-3">
</g>
<g id="glyph-2-4">
<path d="M 1.953125 -14.09375 L 14.703125 -8.15625 L 14.703125 -7 L 1.953125 -1.046875 L 1.953125 -2.546875 L 12.671875 -7.578125 L 1.953125 -12.59375 Z M 1.953125 -14.09375 "/>
</g>
<g id="glyph-2-5">
<path d="M 14.90625 -2.625 L 14.953125 -2.625 L 14.953125 -17.703125 L 16.75 -17.703125 L 16.75 0 L 14.5 0 L 4.203125 -15.21875 L 4.15625 -15.21875 L 4.15625 0 L 2.34375 0 L 2.34375 -17.703125 L 4.59375 -17.703125 Z M 14.90625 -2.625 "/>
</g>
<g id="glyph-2-6">
<path d="M 11.171875 -6.75 C 11.117188 -7.851562 10.765625 -8.765625 10.109375 -9.484375 C 9.453125 -10.210938 8.515625 -10.578125 7.296875 -10.578125 C 6.734375 -10.578125 6.207031 -10.472656 5.71875 -10.265625 C 5.238281 -10.054688 4.816406 -9.769531 4.453125 -9.40625 C 4.085938 -9.050781 3.796875 -8.644531 3.578125 -8.1875 C 3.359375 -7.726562 3.234375 -7.25 3.203125 -6.75 Z M 12.90625 -6.203125 C 12.90625 -6.085938 12.90625 -5.960938 12.90625 -5.828125 C 12.90625 -5.691406 12.894531 -5.550781 12.875 -5.40625 L 3.171875 -5.40625 C 3.191406 -4.820312 3.304688 -4.269531 3.515625 -3.75 C 3.734375 -3.226562 4.035156 -2.773438 4.421875 -2.390625 C 4.804688 -2.015625 5.253906 -1.710938 5.765625 -1.484375 C 6.285156 -1.265625 6.847656 -1.15625 7.453125 -1.15625 C 8.335938 -1.15625 9.097656 -1.359375 9.734375 -1.765625 C 10.378906 -2.171875 10.867188 -2.640625 11.203125 -3.171875 L 12.46875 -2.171875 C 11.769531 -1.285156 11 -0.648438 10.15625 -0.265625 C 9.320312 0.109375 8.421875 0.296875 7.453125 0.296875 C 6.585938 0.296875 5.78125 0.144531 5.03125 -0.15625 C 4.289062 -0.46875 3.65625 -0.898438 3.125 -1.453125 C 2.59375 -2.003906 2.171875 -2.65625 1.859375 -3.40625 C 1.554688 -4.15625 1.40625 -4.96875 1.40625 -5.84375 C 1.40625 -6.726562 1.550781 -7.546875 1.84375 -8.296875 C 2.144531 -9.046875 2.5625 -9.695312 3.09375 -10.25 C 3.632812 -10.800781 4.257812 -11.226562 4.96875 -11.53125 C 5.6875 -11.84375 6.460938 -12 7.296875 -12 C 8.210938 -12 9.019531 -11.84375 9.71875 -11.53125 C 10.425781 -11.226562 11.007812 -10.8125 11.46875 -10.28125 C 11.9375 -9.757812 12.289062 -9.148438 12.53125 -8.453125 C 12.78125 -7.753906 12.90625 -7.003906 12.90625 -6.203125 Z M 12.90625 -6.203125 "/>
</g>
</g>
<clipPath id="clip-0">
<path clip-rule="nonzero" d="M 0 0 L 959.761719 0 L 959.761719 540 L 0 540 Z M 0 0 "/>
</clipPath>
</defs>
<g clip-path="url(#clip-0)">
<path fill-rule="nonzero" fill="rgb(100%, 100%, 100%)" fill-opacity="1" d="M 0 0 L 959.761719 0 L 959.761719 540 L 0 540 Z M 0 0 "/>
</g>
<rect x="-96" y="-54" width="1152" height="648" fill="rgb(100%, 100%, 100%)" fill-opacity="1"/>
<path fill="none" stroke-width="12694" stroke-linecap="butt" stroke-linejoin="miter" stroke="rgb(0%, 0%, 0%)" stroke-opacity="1" stroke-miterlimit="8" d="M 1129669.091351 732291.025317 C 1170249.558802 508503.141853 1073709.718141 292503.930015 899332.770596 169224.637085 C 888815.583433 93719.170751 802991.367429 25704.719802 693007.386574 5662.532944 C 589026.139901 -13089.810206 489311.299342 15832.454493 448234.738156 76802.374417 C 229804.667021 123435.185425 51409.36023 296423.070514 9191.783456 529487.906806 C -46717.98038 838256.646926 158119.12244 1132092.965648 468524.971882 1188250.776351 C 778881.211951 1244408.587054 1073759.327515 1041059.765436 1129669.091351 732291.025317 Z M 1129669.091351 732291.025317 " transform="matrix(0.0000787402, 0, 0, 0.0000787402, 236.0653, 425.4096)"/>
<path fill="none" stroke-width="12694" stroke-linecap="butt" stroke-linejoin="miter" stroke="rgb(0%, 0%, 0%)" stroke-opacity="1" stroke-miterlimit="8" d="M 180769.095465 159168.618657 C 287875.732663 178565.883661 380843.698438 160359.243619 388384.323197 118588.151205 C 395974.557329 76767.449418 315309.71616 27158.076006 208153.469589 7760.811002 C 101046.832392 -11636.454003 8078.866616 6520.576666 488.632484 48390.887826 C -7051.992274 90161.98024 73662.458268 139771.353652 180769.095465 159168.618657 Z M 180769.095465 159168.618657 " transform="matrix(0.0000787402, 0, 0, 0.0000787402, 272.0709, 435.5061)"/>
<path fill="none" stroke-width="12694" stroke-linecap="butt" stroke-linejoin="miter" stroke="rgb(0%, 0%, 0%)" stroke-opacity="1" stroke-miterlimit="8" d="M 9207.023455 732291.025317 C -31323.834623 508503.141853 65166.396665 292503.930015 239543.34421 169224.637085 C 250060.531373 93719.170751 335934.35675 25704.719802 445868.728232 5662.532944 C 549849.974905 -13089.810206 649515.206091 15832.454493 690641.376649 76802.374417 C 909071.447785 123435.185425 1087466.754576 296423.070514 1129684.33135 529487.906806 C 1185594.095186 838256.646926 980756.992366 1132092.965648 670351.142924 1188250.776351 C 359994.902855 1244408.587054 65116.787291 1041059.765436 9207.023455 732291.025317 Z M 9207.023455 732291.025317 " transform="matrix(0.0000787402, 0, 0, 0.0000787402, 366.6891, 425.4096)"/>
<path fill="none" stroke-width="12694" stroke-linecap="butt" stroke-linejoin="miter" stroke="rgb(0%, 0%, 0%)" stroke-opacity="1" stroke-miterlimit="8" d="M 208142.833339 159168.618657 C 101036.196142 178565.883661 8068.230367 160359.243619 477.996235 118588.151205 C -7062.628524 76767.449418 73602.212645 27158.076006 180708.849842 7760.811002 C 287865.096413 -11636.454003 380833.062188 6520.576666 388423.29632 48390.887826 C 396013.530453 90161.98024 315299.07991 139771.353652 208142.833339 159168.618657 Z M 208142.833339 159168.618657 " transform="matrix(0.0000787402, 0, 0, 0.0000787402, 389.7358, 435.5061)"/>
<path fill-rule="evenodd" fill="rgb(0%, 0%, 0%)" fill-opacity="1" stroke-width="474" stroke-linecap="butt" stroke-linejoin="miter" stroke="rgb(6.274414%, 19.999695%, 33.724976%)" stroke-opacity="1" stroke-dasharray="1015.999967 253.999992" stroke-miterlimit="8" d="M 95479.073195 47746.918472 C 95479.073195 74089.495754 74097.433254 95471.135695 47754.855972 95471.135695 C 21362.669316 95471.135695 -18.970624 74089.495754 -18.970624 47746.918472 C -18.970624 21354.731817 21362.669316 22.701249 47754.855972 22.701249 C 74097.433254 22.701249 95479.073195 21354.731817 95479.073195 47746.918472 Z M 95479.073195 47746.918472 " transform="matrix(0.0000787402, 0, 0, 0.0000787402, 342.1304, 279.4279)"/>
<path fill-rule="evenodd" fill="rgb(0%, 0%, 0%)" fill-opacity="1" stroke-width="474" stroke-linecap="butt" stroke-linejoin="miter" stroke="rgb(6.274414%, 19.999695%, 33.724976%)" stroke-opacity="1" stroke-dasharray="1015.999967 253.999992" stroke-miterlimit="8" d="M 95479.073195 47718.343473 C 95479.073195 74110.530128 74097.433254 95442.560696 47754.855972 95442.560696 C 21362.669316 95442.560696 -18.970624 74110.530128 -18.970624 47718.343473 C -18.970624 21375.766191 21362.669316 -5.87375 47754.855972 -5.87375 C 74097.433254 -5.87375 95479.073195 21375.766191 95479.073195 47718.343473 Z M 95479.073195 47718.343473 " transform="matrix(0.0000787402, 0, 0, 0.0000787402, 342.1304, 29.2739)"/>
<path fill-rule="evenodd" fill="rgb(0%, 0%, 0%)" fill-opacity="1" stroke-width="474" stroke-linecap="butt" stroke-linejoin="miter" stroke="rgb(6.274414%, 19.999695%, 33.724976%)" stroke-opacity="1" stroke-dasharray="1015.999967 253.999992" stroke-miterlimit="8" d="M 95479.073195 47736.996597 C 95479.073195 74079.573879 74097.433254 95461.21382 47754.855972 95461.21382 C 21362.669316 95461.21382 -18.970624 74079.573879 -18.970624 47736.996597 C -18.970624 21344.809942 21362.669316 12.779375 47754.855972 12.779375 C 74097.433254 12.779375 95479.073195 21344.809942 95479.073195 47736.996597 Z M 95479.073195 47736.996597 " transform="matrix(0.0000787402, 0, 0, 0.0000787402, 342.1304, 178.2529)"/>
<path fill-rule="nonzero" fill="rgb(100%, 0%, 0%)" fill-opacity="0.051" stroke-width="19050" stroke-linecap="butt" stroke-linejoin="miter" stroke="rgb(0%, 0%, 0%)" stroke-opacity="1" stroke-miterlimit="8" d="M -16.113124 -2.143125 L 1850264.687042 -2.143125 L 1850264.687042 755747.051441 L -16.113124 755747.051441 Z M -16.113124 -2.143125 " transform="matrix(0.0000787402, 0, 0, 0.0000787402, 772.5833, 331.3322)"/>
<path fill-rule="nonzero" fill="rgb(100%, 0%, 0%)" fill-opacity="0.051" stroke-width="19050" stroke-linecap="butt" stroke-linejoin="miter" stroke="rgb(0%, 0%, 0%)" stroke-opacity="1" stroke-miterlimit="8" d="M 11.27125 -13.096875 L 2307244.009918 -13.096875 L 2307244.009918 755785.707065 L 11.27125 755785.707065 Z M 11.27125 -13.096875 " transform="matrix(0.0000787402, 0, 0, 0.0000787402, 61.1163, 330.544)"/>
<path fill="none" stroke-width="19050" stroke-linecap="butt" stroke-linejoin="miter" stroke="rgb(0%, 0%, 0%)" stroke-opacity="1" stroke-miterlimit="8" d="M -4.841875 -19.288124 L 1386825.191872 -19.288124 " transform="matrix(-0.0000787402, 0, 0, 0.0000787402, 339.4879, 182.2398)"/>
<g fill="rgb(0%, 0%, 0%)" fill-opacity="1">
<use xlink:href="#glyph-0-0" x="151.8808" y="190.32"/>
</g>
<g fill="rgb(0%, 0%, 0%)" fill-opacity="1">
<use xlink:href="#glyph-0-1" x="169.2568" y="190.32"/>
</g>
<g fill="rgb(0%, 0%, 0%)" fill-opacity="1">
<use xlink:href="#glyph-0-2" x="186.6328" y="190.32"/>
<use xlink:href="#glyph-0-3" x="201.6328" y="190.32"/>
</g>
<g fill="rgb(0%, 0%, 0%)" fill-opacity="1">
<use xlink:href="#glyph-1-0" x="77.89874" y="372.96"/>
<use xlink:href="#glyph-1-1" x="95.150236" y="372.96"/>
</g>
<g fill="rgb(0%, 0%, 0%)" fill-opacity="1">
<use xlink:href="#glyph-1-2" x="116.531731" y="372.96"/>
</g>
<g fill="rgb(0%, 0%, 0%)" fill-opacity="1">
<use xlink:href="#glyph-1-3" x="136.898227" y="372.96"/>
<use xlink:href="#glyph-1-4" x="157.264722" y="372.96"/>
</g>
<g fill="rgb(0%, 0%, 0%)" fill-opacity="1">
<use xlink:href="#glyph-1-5" x="172.766218" y="372.96"/>
<use xlink:href="#glyph-1-1" x="183.892716" y="372.96"/>
</g>
<g fill="rgb(0%, 0%, 0%)" fill-opacity="1">
<use xlink:href="#glyph-1-3" x="205.274211" y="372.96"/>
</g>
<g fill="rgb(0%, 0%, 0%)" fill-opacity="1">
<use xlink:href="#glyph-2-0" x="91.74874" y="418.08"/>
</g>
<g fill="rgb(0%, 0%, 0%)" fill-opacity="1">
<use xlink:href="#glyph-2-1" x="104.548744" y="418.08"/>
</g>
<g fill="rgb(0%, 0%, 0%)" fill-opacity="1">
<use xlink:href="#glyph-2-2" x="117.923748" y="418.08"/>
<use xlink:href="#glyph-2-3" x="126.923751" y="418.08"/>
<use xlink:href="#glyph-2-4" x="133.173753" y="418.08"/>
</g>
<g fill="rgb(0%, 0%, 0%)" fill-opacity="1">
<use xlink:href="#glyph-2-3" x="149.798759" y="418.08"/>
<use xlink:href="#glyph-2-5" x="156.048761" y="418.08"/>
</g>
<g fill="rgb(0%, 0%, 0%)" fill-opacity="1">
<use xlink:href="#glyph-2-6" x="175.173767" y="418.08"/>
</g>
<g fill="rgb(0%, 0%, 0%)" fill-opacity="1">
<use xlink:href="#glyph-2-1" x="189.423771" y="418.08"/>
</g>
<g fill="rgb(0%, 0%, 0%)" fill-opacity="1">
<use xlink:href="#glyph-2-2" x="202.798776" y="418.08"/>
</g>
<g fill="rgb(0%, 0%, 0%)" fill-opacity="1">
<use xlink:href="#glyph-1-6" x="795.2668" y="372.96"/>
</g>
<g fill="rgb(0%, 0%, 0%)" fill-opacity="1">
<use xlink:href="#glyph-1-7" x="813.141296" y="372.96"/>
<use xlink:href="#glyph-1-3" x="821.891294" y="372.96"/>
</g>
<g fill="rgb(0%, 0%, 0%)" fill-opacity="1">
<use xlink:href="#glyph-1-5" x="842.264789" y="372.96"/>
</g>
<g fill="rgb(0%, 0%, 0%)" fill-opacity="1">
<use xlink:href="#glyph-1-1" x="853.391287" y="372.96"/>
</g>
<g fill="rgb(0%, 0%, 0%)" fill-opacity="1">
<use xlink:href="#glyph-1-3" x="874.765782" y="372.96"/>
</g>
<g fill="rgb(0%, 0%, 0%)" fill-opacity="1">
<use xlink:href="#glyph-2-5" x="785.1818" y="418.08"/>
</g>
<g fill="rgb(0%, 0%, 0%)" fill-opacity="1">
<use xlink:href="#glyph-2-6" x="804.306806" y="418.08"/>
</g>
<g fill="rgb(0%, 0%, 0%)" fill-opacity="1">
<use xlink:href="#glyph-2-1" x="818.556811" y="418.08"/>
</g>
<g fill="rgb(0%, 0%, 0%)" fill-opacity="1">
<use xlink:href="#glyph-2-2" x="831.931815" y="418.08"/>
<use xlink:href="#glyph-2-3" x="840.931818" y="418.08"/>
<use xlink:href="#glyph-2-4" x="847.18182" y="418.08"/>
</g>
<g fill="rgb(0%, 0%, 0%)" fill-opacity="1">
<use xlink:href="#glyph-2-3" x="863.806825" y="418.08"/>
<use xlink:href="#glyph-2-0" x="870.056827" y="418.08"/>
</g>
<g fill="rgb(0%, 0%, 0%)" fill-opacity="1">
<use xlink:href="#glyph-2-1" x="882.856831" y="418.08"/>
</g>
<g fill="rgb(0%, 0%, 0%)" fill-opacity="1">
<use xlink:href="#glyph-2-2" x="896.231836" y="418.08"/>
</g>
<path fill="none" stroke-width="12694" stroke-linecap="butt" stroke-linejoin="miter" stroke="rgb(0%, 0%, 0%)" stroke-opacity="1" stroke-miterlimit="8" d="M 1129670.361351 732321.029066 C 1170250.828802 508483.536229 1073710.988141 292533.933764 899334.040596 169254.640834 C 888816.853433 93749.1745 802992.637429 25685.114178 693008.656574 5642.927319 C 589027.409901 -13109.41583 489312.569342 15862.458242 448236.008156 76782.768793 C 229805.937021 123415.579801 51410.63023 296403.46489 9193.053456 529468.301182 C -46716.71038 838237.041301 158120.39244 1132073.360024 468526.241882 1188280.7801 C 778882.481951 1244438.590803 1073760.597515 1041089.769185 1129670.361351 732321.029066 Z M 1129670.361351 732321.029066 " transform="matrix(0.0000787402, 0, 0, 0.0000787402, 542.0652, 425.8838)"/>
<path fill="none" stroke-width="12694" stroke-linecap="butt" stroke-linejoin="miter" stroke="rgb(0%, 0%, 0%)" stroke-opacity="1" stroke-miterlimit="8" d="M 180769.095465 159150.283032 C 287875.732663 178547.548036 380843.698438 160390.517368 388384.323197 118569.815581 C 395974.557329 76749.113794 315309.71616 27189.349755 208153.469589 7742.475377 C 101046.832392 -11605.180254 8078.866616 6551.850415 488.632484 48372.552202 C -7051.992274 90143.644615 73662.458268 139753.018028 180769.095465 159150.283032 Z M 180769.095465 159150.283032 " transform="matrix(0.0000787402, 0, 0, 0.0000787402, 578.0709, 435.9802)"/>
<path fill="none" stroke-width="12694" stroke-linecap="butt" stroke-linejoin="miter" stroke="rgb(0%, 0%, 0%)" stroke-opacity="1" stroke-miterlimit="8" d="M 9207.023455 732321.029066 C -31323.834623 508483.536229 65166.396665 292533.933764 239543.34421 169254.640834 C 250060.531373 93749.1745 335934.35675 25685.114178 445868.728232 5642.927319 C 549849.974905 -13109.41583 649515.206091 15862.458242 690641.376649 76782.768793 C 909071.447785 123415.579801 1087466.754576 296403.46489 1129684.33135 529468.301182 C 1185594.095186 838237.041301 980756.992366 1132073.360024 670351.142924 1188280.7801 C 359994.902855 1244438.590803 65116.787291 1041089.769185 9207.023455 732321.029066 Z M 9207.023455 732321.029066 " transform="matrix(0.0000787402, 0, 0, 0.0000787402, 672.6891, 425.8838)"/>
<path fill="none" stroke-width="12694" stroke-linecap="butt" stroke-linejoin="miter" stroke="rgb(0%, 0%, 0%)" stroke-opacity="1" stroke-miterlimit="8" d="M 208142.833339 159150.283032 C 101036.196142 178547.548036 8068.230367 160390.517368 477.996235 118569.815581 C -7062.628524 76749.113794 73602.212645 27189.349755 180708.849842 7742.475377 C 287865.096413 -11605.180254 380833.062188 6551.850415 388423.29632 48372.552202 C 396013.530453 90143.644615 315299.07991 139753.018028 208142.833339 159150.283032 Z M 208142.833339 159150.283032 " transform="matrix(0.0000787402, 0, 0, 0.0000787402, 695.7358, 435.9802)"/>
<path fill-rule="evenodd" fill="rgb(0%, 0%, 0%)" fill-opacity="1" stroke-width="474" stroke-linecap="butt" stroke-linejoin="miter" stroke="rgb(6.274414%, 19.999695%, 33.724976%)" stroke-opacity="1" stroke-dasharray="1015.999967 253.999992" stroke-miterlimit="8" d="M 95479.073195 47728.582848 C 95479.073195 74071.16013 74097.433254 95452.800071 47754.855972 95452.800071 C 21362.669316 95452.800071 -18.970624 74071.16013 -18.970624 47728.582848 C -18.970624 21386.005566 21362.669316 4.365625 47754.855972 4.365625 C 74097.433254 4.365625 95479.073195 21386.005566 95479.073195 47728.582848 Z M 95479.073195 47728.582848 " transform="matrix(0.0000787402, 0, 0, 0.0000787402, 648.1304, 279.902)"/>
<path fill-rule="evenodd" fill="rgb(0%, 0%, 0%)" fill-opacity="1" stroke-width="474" stroke-linecap="butt" stroke-linejoin="miter" stroke="rgb(6.274414%, 19.999695%, 33.724976%)" stroke-opacity="1" stroke-dasharray="1015.999967 253.999992" stroke-miterlimit="8" d="M 95479.073195 47748.505972 C 95479.073195 74091.083254 74097.433254 95472.723195 47754.855972 95472.723195 C 21362.669316 95472.723195 -18.970624 74091.083254 -18.970624 47748.505972 C -18.970624 21356.319317 21362.669316 24.288749 47754.855972 24.288749 C 74097.433254 24.288749 95479.073195 21356.319317 95479.073195 47748.505972 Z M 95479.073195 47748.505972 " transform="matrix(0.0000787402, 0, 0, 0.0000787402, 648.1304, 76.6309)"/>
<path fill-rule="evenodd" fill="rgb(0%, 0%, 0%)" fill-opacity="1" stroke-width="474" stroke-linecap="butt" stroke-linejoin="miter" stroke="rgb(6.274414%, 19.999695%, 33.724976%)" stroke-opacity="1" stroke-dasharray="1015.999967 253.999992" stroke-miterlimit="8" d="M 95479.073195 47717.390973 C 95479.073195 74109.577628 74097.433254 95441.608196 47754.855972 95441.608196 C 21362.669316 95441.608196 -18.970624 74109.577628 -18.970624 47717.390973 C -18.970624 21374.813691 21362.669316 -6.82625 47754.855972 -6.82625 C 74097.433254 -6.82625 95479.073195 21374.813691 95479.073195 47717.390973 Z M 95479.073195 47717.390973 " transform="matrix(0.0000787402, 0, 0, 0.0000787402, 648.1304, 178.7271)"/>
<path fill-rule="evenodd" fill="rgb(100%, 0%, 0%)" fill-opacity="0.502" stroke-width="19050" stroke-linecap="butt" stroke-linejoin="miter" stroke="rgb(1.568604%, 14.117432%, 19.999695%)" stroke-opacity="1" stroke-miterlimit="8" d="M 12.938125 150055.575198 L 150081.292697 -12.779375 L 300149.64727 150055.575198 L 225140.274671 150055.575198 L 225140.274671 1008694.610222 L 300149.64727 1008694.610222 L 150081.292697 1158762.964795 L 12.938125 1008694.610222 L 75022.310724 1008694.610222 L 75022.310724 150055.575198 Z M 12.938125 150055.575198 " transform="matrix(0.0000787402, 0, 0, 0.0000787402, 640.1357, 86.1221)"/>
<path fill-rule="evenodd" fill="rgb(0%, 0%, 0%)" fill-opacity="1" stroke-width="474" stroke-linecap="butt" stroke-linejoin="miter" stroke="rgb(6.274414%, 19.999695%, 33.724976%)" stroke-opacity="1" stroke-dasharray="1015.999967 253.999992" stroke-miterlimit="8" d="M 95459.546945 47732.551598 C 95459.546945 74075.12888 74127.516378 95456.76882 47735.329722 95456.76882 C 21392.75244 95456.76882 11.1125 74075.12888 11.1125 47732.551598 C 11.1125 21389.974316 21392.75244 8.334375 47735.329722 8.334375 C 74127.516378 8.334375 95459.546945 21389.974316 95459.546945 47732.551598 Z M 95459.546945 47732.551598 " transform="matrix(0.0000787402, 0, 0, 0.0000787402, 647.796, 326.9095)"/>
<path fill-rule="nonzero" fill="rgb(100%, 100%, 100%)" fill-opacity="1" d="M 635.890625 278.640625 L 670.015625 278.640625 L 670.015625 296.492188 L 635.890625 296.492188 Z M 635.890625 278.640625 "/>
<path fill-rule="nonzero" fill="rgb(100%, 100%, 100%)" fill-opacity="1" d="M 329.921875 277.996094 L 364.046875 277.996094 L 364.046875 295.84375 L 329.921875 295.84375 Z M 329.921875 277.996094 "/>
<path fill-rule="evenodd" fill="rgb(0%, 69.020081%, 94.117737%)" fill-opacity="0.502" stroke-width="19050" stroke-linecap="butt" stroke-linejoin="miter" stroke="rgb(1.568604%, 14.117432%, 19.999695%)" stroke-opacity="1" stroke-miterlimit="8" d="M 5.476875 150085.420197 L 150073.831448 17.065624 L 300142.18602 150085.420197 L 225132.813421 150085.420197 L 225132.813421 1008674.845847 L 300142.18602 1008674.845847 L 150073.831448 1158743.20042 L 5.476875 1008674.845847 L 75014.849475 1008674.845847 L 75014.849475 150085.420197 Z M 5.476875 150085.420197 " transform="matrix(0.0000787402, 0, 0, 0.0000787402, 334.3316, 187.401)"/>
<path fill-rule="evenodd" fill="rgb(0%, 0%, 0%)" fill-opacity="1" stroke-width="474" stroke-linecap="butt" stroke-linejoin="miter" stroke="rgb(6.274414%, 19.999695%, 33.724976%)" stroke-opacity="1" stroke-dasharray="1015.999967 253.999992" stroke-miterlimit="8" d="M 95505.108194 47728.582848 C 95505.108194 74071.16013 74123.468253 95452.800071 47731.281598 95452.800071 C 21388.704316 95452.800071 7.064375 74071.16013 7.064375 47728.582848 C 7.064375 21386.005566 21388.704316 4.365625 47731.281598 4.365625 C 74123.468253 4.365625 95505.108194 21386.005566 95505.108194 47728.582848 Z M 95505.108194 47728.582848 " transform="matrix(0.0000787402, 0, 0, 0.0000787402, 342.4096, 280.7145)"/>
<path fill="none" stroke-width="19050" stroke-linecap="butt" stroke-linejoin="miter" stroke="rgb(0%, 0%, 0%)" stroke-opacity="1" stroke-miterlimit="8" d="M 11.7475 0.873125 L 1386841.781246 0.873125 " transform="matrix(-0.0000787402, 0, 0, 0.0000787402, 767.6728, 182.8554)"/>
<path fill="none" stroke-width="19050" stroke-linecap="butt" stroke-linejoin="miter" stroke="rgb(0%, 0%, 0%)" stroke-opacity="1" stroke-miterlimit="8" d="M -15.716249 -18.653124 L 3738050.570382 -18.653124 " transform="matrix(-0.0000787402, 0, 0, 0.0000787402, 646.3972, 182.5835)"/>
<g fill="rgb(0%, 0%, 0%)" fill-opacity="1">
<use xlink:href="#glyph-0-4" x="771.7722" y="190.32"/>
</g>
<g fill="rgb(0%, 0%, 0%)" fill-opacity="1">
<use xlink:href="#glyph-0-5" x="788.1072" y="190.32"/>
<use xlink:href="#glyph-0-6" x="795.6072" y="190.32"/>
</g>
<g fill="rgb(0%, 0%, 0%)" fill-opacity="1">
<use xlink:href="#glyph-0-7" x="810.1062" y="190.32"/>
</g>
<g fill="rgb(0%, 0%, 0%)" fill-opacity="1">
<use xlink:href="#glyph-0-8" x="826.1052" y="190.32"/>
</g>
<g fill="rgb(0%, 0%, 0%)" fill-opacity="1">
<use xlink:href="#glyph-0-5" x="835.6062" y="190.32"/>
<use xlink:href="#glyph-0-9" x="843.1062" y="190.32"/>
</g>
<g fill="rgb(0%, 0%, 0%)" fill-opacity="1">
<use xlink:href="#glyph-0-10" x="861.4812" y="190.32"/>
</g>
<path fill-rule="evenodd" fill="rgb(100%, 0%, 0%)" fill-opacity="0.502" stroke-width="19050" stroke-linecap="butt" stroke-linejoin="miter" stroke="rgb(1.568604%, 14.117432%, 19.999695%)" stroke-opacity="1" stroke-miterlimit="8" d="M -23.971249 150110.820196 L 150093.992697 -7.14375 L 300211.956643 150110.820196 L 225152.97467 150110.820196 L 225152.97467 1595876.789557 L 300211.956643 1595876.789557 L 150093.992697 1745994.753503 L -23.971249 1595876.789557 L 75035.010724 1595876.789557 L 75035.010724 150110.820196 Z M -23.971249 150110.820196 " transform="matrix(0.0000787402, 0, 0, 0.0000787402, 334.0722, 39.3365)"/>
<path fill-rule="evenodd" fill="rgb(0%, 69.020081%, 94.117737%)" fill-opacity="0.502" stroke-width="19050" stroke-linecap="butt" stroke-linejoin="miter" stroke="rgb(1.568604%, 14.117432%, 19.999695%)" stroke-opacity="1" stroke-miterlimit="8" d="M 2.619375 150093.437072 L 150120.583321 -24.526874 L 300238.547267 150093.437072 L 225179.565294 150093.437072 L 225179.565294 1595909.015806 L 300238.547267 1595909.015806 L 150120.583321 1745977.370379 L 2.619375 1595909.015806 L 75061.601348 1595909.015806 L 75061.601348 150093.437072 Z M 2.619375 150093.437072 " transform="matrix(0.0000787402, 0, 0, 0.0000787402, 640.0662, 187.2324)"/>

<rect x="247.5" y="28" width="90" height="10" fill="red" fill-opacity="0.5" stroke="black" stroke-width="2">
  <animate
    attributeName="y"
    values="28;177.5;28"
    dur="4s"
    repeatCount="indefinite"
    calcMode="spline"
    keyTimes="0;0.5;1"
    keySplines="0.5 0 0.5 1; 0.5 0 0.5 1"
  />
  <animate
    attributeName="width"
    values="90;72;90"
    dur="4s"
    repeatCount="indefinite"
    calcMode="spline"
    keyTimes="0;0.5;1"
    keySplines="0.5 0 0.5 1; 0.5 0 0.5 1"
  />
  <animate
    attributeName="x"
    values="247.5;265.5;247.5"
    dur="4s"
    repeatCount="indefinite"
    calcMode="spline"
    keyTimes="0;0.5;1"
    keySplines="0.5 0 0.5 1; 0.5 0 0.5 1"
  />
</rect>

<rect x="354" y="28" width="90" height="10" fill="red" fill-opacity="0.5" stroke="black" stroke-width="2">
  <animate
    attributeName="y"
    values="28;177.5;28"
    dur="4s"
    repeatCount="indefinite"
    calcMode="spline"
    keyTimes="0;0.5;1"
    keySplines="0.5 0 0.5 1; 0.5 0 0.5 1"
  />
  <animate
    attributeName="width"
    values="90;72;90"
    dur="4s"
    repeatCount="indefinite"
    calcMode="spline"
    keyTimes="0;0.5;1"
    keySplines="0.5 0 0.5 1; 0.5 0 0.5 1"
  />
</rect>

<rect x="301" y="177.5" width="90" height="10" fill="red" fill-opacity="0.5" stroke="black" stroke-width="2">
  <animate
    attributeName="y"
    values="177.5;279.5;177.5"
    dur="4s"
    repeatCount="indefinite"
    calcMode="spline"
    keyTimes="0;0.5;1"
    keySplines="0.5 0 0.5 1; 0.5 0 0.5 1"
  />
  <animate
    attributeName="width"
    values="90;68;90"
    dur="4s"
    repeatCount="indefinite"
    calcMode="spline"
    keyTimes="0;0.5;1"
    keySplines="0.5 0 0.5 1; 0.5 0 0.5 1"
  />
  <animate
    attributeName="x"
    values="301;312;301"
    dur="4s"
    repeatCount="indefinite"
    calcMode="spline"
    keyTimes="0;0.5;1"
    keySplines="0.5 0 0.5 1; 0.5 0 0.5 1"
  />
</rect>


<rect x="554" y="75" width="90" height="10" fill="red" fill-opacity="0.5" stroke="black" stroke-width="2">
  <animate
    attributeName="y"
    values="75;177.5;75"
    dur="4s"
    repeatCount="indefinite"
    calcMode="spline"
    keyTimes="0;0.5;1"
    keySplines="0.5 0 0.5 1; 0.5 0 0.5 1"
  />
  <animate
    attributeName="width"
    values="90;72;90"
    dur="4s"
    repeatCount="indefinite"
    calcMode="spline"
    keyTimes="0;0.5;1"
    keySplines="0.5 0 0.5 1; 0.5 0 0.5 1"
  />
  <animate
    attributeName="x"
    values="554;572;554"
    dur="4s"
    repeatCount="indefinite"
    calcMode="spline"
    keyTimes="0;0.5;1"
    keySplines="0.5 0 0.5 1; 0.5 0 0.5 1"
  />
</rect>

<rect x="660" y="75" width="90" height="10" fill="red" fill-opacity="0.5" stroke="black" stroke-width="2">
  <animate
    attributeName="y"
    values="75;177.5;75"
    dur="4s"
    repeatCount="indefinite"
    calcMode="spline"
    keyTimes="0;0.5;1"
    keySplines="0.5 0 0.5 1; 0.5 0 0.5 1"
  />
  <animate
    attributeName="width"
    values="90;72;90"
    dur="4s"
    repeatCount="indefinite"
    calcMode="spline"
    keyTimes="0;0.5;1"
    keySplines="0.5 0 0.5 1; 0.5 0 0.5 1"
  />
</rect>

<rect x="607" y="177.5" width="90" height="10" fill="red" fill-opacity="0.5" stroke="black" stroke-width="2">
  <animate
    attributeName="y"
    values="177.5;325.5;177.5"
    dur="4s"
    repeatCount="indefinite"
    calcMode="spline"
    keyTimes="0;0.5;1"
    keySplines="0.5 0 0.5 1; 0.5 0 0.5 1"
  />
  <animate
    attributeName="width"
    values="90;68;90"
    dur="4s"
    repeatCount="indefinite"
    calcMode="spline"
    keyTimes="0;0.5;1"
    keySplines="0.5 0 0.5 1; 0.5 0 0.5 1"
  />
  <animate
    attributeName="x"
    values="607;618;607"
    dur="4s"
    repeatCount="indefinite"
    calcMode="spline"
    keyTimes="0;0.5;1"
    keySplines="0.5 0 0.5 1; 0.5 0 0.5 1"
  />
</rect>

</svg>
